<svg width="564" height="655" viewBox="0 0 564 655" fill="none" xmlns="http://www.w3.org/2000/svg">
<g opacity="0.5" filter="url(#filter0_f_2019_2684)">
<ellipse cx="244.5" cy="327.5" rx="119.5" ry="127.5" fill="#FFE356"/>
</g>
<path d="M327.351 462.38C327.354 459.325 257.127 459.407 224.373 459.407C191.619 459.407 174.521 459.208 174.921 461.941C175.173 463.663 192.507 464.069 225.261 464.069C258.015 464.069 327.35 464.326 327.351 462.38Z" fill="#827893"/>
<path d="M233.188 409.884C233.188 409.884 235.434 437.97 233.562 443.962C231.69 449.954 229.817 458.192 231.69 458.941C233.562 459.69 272.134 460.065 273.632 458.941C275.13 457.818 253.41 448.83 251.163 443.587C248.916 438.345 251.163 413.629 251.163 413.629L233.188 409.884Z" fill="#E8886F"/>
<path d="M230.003 460.622C231.875 461.746 274.566 462.495 275.315 461.371C275.843 460.581 275.338 458.814 274.806 457.612C274.581 457.102 274.349 456.694 274.192 456.503C270.447 452.009 260.71 451.26 255.842 445.643C254.209 443.76 252.966 441.179 252.292 439.592C251.921 438.723 251.015 438.21 250.079 438.341C247.888 438.648 244.922 438.588 243.858 439.652C242.361 441.149 241.739 447.254 239.739 447.516C235.433 448.078 233.935 443.958 233.186 444.333C232.733 444.557 230.98 450.051 230.077 454.612C229.49 457.593 229.261 460.177 230.003 460.622Z" fill="#6C4E4E"/>
<path d="M230.003 460.624C231.875 461.748 274.566 462.496 275.315 461.373C275.843 460.583 275.338 458.815 274.806 457.613C272.975 457.636 246.405 457.977 244.233 457.254C242.286 456.602 233.575 454.827 230.078 454.614C229.49 457.595 229.261 460.179 230.003 460.624Z" fill="#EFE4DA"/>
<path d="M209.276 447.682L208.935 439.143L209.968 410.258L192.742 414.377C192.742 414.377 194.989 443.212 193.491 447.706C191.993 452.2 209.276 447.682 209.276 447.682Z" fill="#E8886F"/>
<path d="M181.884 460.436C182.633 461.934 208.472 462.683 209.97 461.185C210.554 460.601 210.453 458.069 210.116 455.209C209.584 450.741 209.221 445.457 209.221 445.457C207.723 445.082 206.974 448.453 205.85 448.078C204.727 447.704 201.731 441.712 200.608 440.589C199.484 439.465 195.739 439.84 193.493 439.84C191.246 439.84 189.373 447.329 188.624 448.827C187.875 450.325 184.13 452.572 183.381 453.696C183.007 454.257 182.449 455.561 182.074 456.913C181.696 458.272 181.509 459.684 181.884 460.436Z" fill="#6C4E4E"/>
<path d="M181.884 460.439C182.633 461.937 208.472 462.686 209.97 461.188C210.554 460.604 210.453 458.073 210.116 455.212C209.202 455.257 207.509 455.41 206.974 455.946C206.225 456.694 205.476 457.818 205.102 458.192C204.783 458.511 187.501 457.818 182.075 456.915C181.696 458.275 181.509 459.687 181.884 460.439Z" fill="#EFE4DA"/>
<path d="M186.087 451.349C190.264 449.712 194.063 449.319 198.377 450.45C199.24 450.677 198.874 452.009 198.008 451.788C193.819 450.718 189.735 451.031 185.642 452.343C184.787 452.617 185.284 451.663 186.087 451.349Z" fill="#4A3333"/>
<path d="M250.915 257.581C250.915 257.581 262.217 428.877 259.97 430.375C257.723 431.873 234.312 436.096 232.814 433.849C231.316 431.602 228.695 374.681 228.695 371.31C228.695 367.94 224.576 328.245 224.576 328.245C224.576 328.245 220.138 353.366 219.333 361.574C217.46 380.673 214.682 434.531 212.81 435.28C210.937 436.029 187.502 436.096 185.629 430.479C183.757 424.862 195.855 276.705 198.851 260.976C201.846 245.248 250.915 257.581 250.915 257.581Z" fill="#AEBFD1"/>
<path opacity="0.5" d="M231.647 321.342C232.926 335.886 233.995 356.442 235.143 370.996C235.467 375.101 235.788 379.206 236.104 383.311C236.139 383.764 235.435 383.76 235.399 383.311C234.226 368.759 233.103 348.212 231.965 333.657C231.644 329.553 231.322 325.449 231.036 321.342C231.009 320.948 231.613 320.954 231.647 321.342ZM236.989 388.39C237.547 395.322 237.998 402.263 238.318 409.21C238.637 416.143 238.991 423.12 238.86 430.062C238.853 430.452 238.271 430.456 238.255 430.067C237.959 423.12 237.92 416.163 237.606 409.215C237.293 402.269 236.87 395.328 236.328 388.395C236.295 387.971 236.955 387.968 236.989 388.39Z" fill="#91A8BA"/>
<path d="M235.823 282.104C235.187 284.318 233.754 286.041 232.351 287.831C232.777 285.311 233.205 280.906 233.641 278.39C233.802 277.459 232.378 277.058 232.214 277.996C229.387 294.231 226.284 312.339 223.797 328.63C223.665 329.492 224.96 329.885 225.133 328.998C227.65 316.079 229.782 303.068 231.971 290.08C232.104 290.067 232.239 290.007 232.36 289.88C234.458 287.693 235.947 285.106 236.807 282.201C237.069 281.315 236.078 281.218 235.823 282.104ZM208.19 278.587C206.435 282.597 203.832 285.777 200.595 288.679C200.066 289.153 200.78 290.113 201.367 289.679C204.928 287.047 207.633 283.329 209.416 279.304C209.784 278.475 208.555 277.752 208.19 278.587Z" fill="#91A8BA"/>
<path d="M219.107 176.14C219.107 176.14 194.977 185.012 191.258 187.065C187.538 189.118 181.526 201.34 178.426 207.54C175.326 213.74 171.156 223.473 174.793 233.094C178.361 242.53 197.384 245.918 197.384 245.918C197.384 245.918 196.422 248.284 195.906 251.126C195.389 253.967 198.231 259.134 198.231 259.134C198.231 259.134 212.44 264.56 220.448 261.718C228.457 258.876 239.049 258.101 243.957 257.584C248.866 257.068 251.708 257.068 251.708 257.068C251.708 257.068 255.066 254.484 253.516 245.959C251.966 237.434 251.449 234.85 251.191 229.684C250.932 224.517 252.999 219.35 252.999 219.35C252.999 219.35 262.368 198.367 262.109 196.559C261.851 194.75 247.316 182.64 245.249 181.09C244.283 180.366 236.214 179.385 230.399 177.842C223.77 176.082 219.107 176.14 219.107 176.14Z" fill="#B35A3C"/>
<path d="M244.606 250.966C241.375 251.643 238.132 252.32 234.84 252.627C231.553 252.932 228.336 252.771 225.104 252.103C223.565 251.785 222.028 251.436 220.462 251.287C218.964 251.143 217.48 251.245 216.01 251.563C213.16 252.179 210.474 253.5 207.57 253.881C204.98 254.22 201.893 253.845 200.188 251.636C199.927 251.298 199.34 251.633 199.606 251.977C201.111 253.928 203.529 254.66 205.919 254.663C208.811 254.667 211.497 253.551 214.224 252.731C215.714 252.283 217.238 251.921 218.8 251.892C220.471 251.861 222.12 252.17 223.749 252.508C225.354 252.841 226.954 253.184 228.589 253.341C230.234 253.499 231.891 253.504 233.54 253.402C237.336 253.17 241.072 252.395 244.786 251.617C245.21 251.528 245.03 250.877 244.606 250.966ZM223.812 224.006C219.706 224.181 215.594 224.214 211.486 224.1C207.509 223.99 203.496 223.823 199.546 223.329C198.823 223.238 198.097 223.125 197.377 222.982C197.418 222.926 197.453 222.863 197.478 222.787L199.849 215.485C200.244 214.271 200.639 213.056 201.033 211.841C201.409 210.679 201.771 209.512 201.949 208.3C202.002 207.94 201.86 207.575 201.478 207.471C201.16 207.383 200.702 207.579 200.648 207.942C200.47 209.154 200.109 210.321 199.732 211.483C199.338 212.698 198.943 213.912 198.548 215.127L196.177 222.429C196.145 222.527 196.136 222.617 196.144 222.701C195.229 222.466 194.33 222.174 193.466 221.796C193.133 221.65 192.742 221.698 192.543 222.038C192.376 222.324 192.45 222.814 192.785 222.961C196.381 224.535 200.328 224.824 204.198 225.094C208.381 225.386 212.575 225.527 216.769 225.516C219.117 225.51 221.466 225.455 223.812 225.355C224.677 225.318 224.682 223.969 223.812 224.006Z" fill="#933B16"/>
<path d="M221.406 245.234C213.255 246.726 204.861 246.921 196.648 245.817C194.312 245.503 191.992 245.076 189.694 244.554C188.848 244.362 188.487 245.663 189.335 245.855C197.595 247.732 206.148 248.309 214.584 247.526C216.991 247.302 219.388 246.97 221.765 246.535C222.618 246.378 222.257 245.078 221.406 245.234Z" fill="#FBDDB4"/>
<path d="M191.156 187.129C194.528 190.7 197.547 194.605 200.147 198.772C201.483 200.913 202.706 203.122 203.817 205.388C204.008 205.778 204.59 205.436 204.399 205.048C201.132 198.38 196.855 192.212 191.773 186.801C191.574 186.898 191.399 186.987 191.258 187.065C191.225 187.084 191.19 187.109 191.156 187.129Z" fill="#933B16"/>
<path d="M210.691 163.851C211.036 163.851 212.414 169.248 212.988 172.118C213.562 174.989 211.151 179.237 210.577 179.581C210.003 179.926 223.321 192.786 224.125 192.212C224.929 191.637 230.325 177.744 230.325 177.744C230.325 177.744 227.455 175.907 226.536 171.43C225.618 166.952 224.24 162.129 224.24 162.129L210.691 163.851Z" fill="#E99167"/>
<path d="M213.374 169.946C214.256 172.172 215.702 174.285 217.801 175.518C219.686 176.624 221.913 176.856 224.051 176.586C225.475 176.406 226.87 176.022 228.219 175.516C227.551 174.524 226.892 173.182 226.533 171.43C225.614 166.952 224.236 162.129 224.236 162.129L211.938 163.693C212.164 165.825 212.584 167.951 213.374 169.946Z" fill="#1A1A1A"/>
<path d="M230.315 139.215C230.169 135.451 228.159 131.678 224.83 129.799C223.213 128.886 221.343 128.504 219.513 128.881C218.684 129.051 217.865 129.386 217.168 129.867C216.44 130.369 215.902 130.997 215.41 131.724C215.211 132.019 215.005 132.35 214.709 132.56C214.328 132.831 213.873 132.705 213.449 132.623C212.42 132.425 211.368 132.299 210.32 132.33C208.398 132.385 206.498 132.973 205.086 134.318C204.445 134.928 203.942 135.672 203.629 136.5C203.482 136.888 203.398 137.29 203.352 137.702C203.324 137.962 203.345 138.259 203.327 138.545C203.135 138.328 202.921 138.129 202.684 137.959C201.85 137.36 200.656 137.22 199.78 137.816C199.555 137.969 199.454 138.261 199.599 138.508C199.73 138.732 200.064 138.844 200.291 138.69C200.9 138.275 201.638 138.414 202.222 138.869C202.381 138.992 202.522 139.136 202.648 139.292C202.573 139.263 202.492 139.232 202.402 139.213C201.889 139.104 201.39 139.273 200.962 139.555C200.225 140.038 199.604 140.686 199.088 141.395C197.083 144.154 196.942 147.931 197.636 151.153C199.071 157.816 204.336 163.566 210.892 165.477C211.938 165.782 213.042 165.98 214.134 165.893C215.165 165.812 216.153 165.53 217.099 165.119C218.732 164.409 220.176 163.278 221.334 161.931C223.951 158.891 225.063 154.966 225.362 151.03C225.414 150.347 225.44 149.663 225.449 148.979C225.511 148.965 225.57 148.943 225.623 148.903C228.617 146.635 230.463 142.997 230.315 139.215Z" fill="#763128"/>
<path d="M233.418 164.57C232.886 160.186 231.528 155.877 230.121 151.707C229.718 150.513 229.38 149.354 229.082 148.172C228.911 147.495 227.424 143.504 226.385 142.454C226.105 142.425 225.81 142.456 225.573 142.603C225.205 142.831 224.906 143.18 224.623 143.501C224.343 143.82 224.083 144.159 223.788 144.464C223.42 144.844 222.987 145.179 222.557 145.486C221.641 146.138 220.606 146.639 219.505 146.883C218.243 147.163 216.947 147.027 215.69 146.785C215.002 146.652 214.322 146.484 213.642 146.314C213.411 146.257 212.628 146.049 212.452 146.091C211.934 146.217 212.047 149.581 210.384 151.056C210.183 152.875 211.357 157.768 208.834 158.456C208.478 158.553 207.054 155.873 203.854 157.162C201.687 158.035 201.534 160.92 201.863 162.122C204.015 170.001 210.108 167.569 210.108 167.569C214.64 173.861 217.9 175.891 225.131 174.304C227.479 173.788 232.147 171.913 233.203 169.31C233.792 167.855 233.602 166.085 233.418 164.57Z" fill="#E99167"/>
<path d="M230.007 162.848C230.007 162.848 225.615 164.57 223.29 165.001C220.965 165.432 224.323 169.393 227.165 168.876C230.007 168.359 230.007 162.848 230.007 162.848Z" fill="white"/>
<path d="M218.763 157.208C217.79 157.307 216.809 158.078 216.512 159.072C216.405 159.428 216.425 159.862 216.84 159.643C217.306 159.396 217.627 158.919 218.098 158.673C218.541 158.44 219.068 158.442 219.568 158.469C219.738 158.478 219.911 158.49 220.074 158.443C220.238 158.396 220.392 158.279 220.432 158.113C220.594 157.447 219.18 157.165 218.763 157.208Z" fill="#1A1A1A"/>
<path d="M226.491 161.163C226.342 160.88 225.97 160.762 225.687 160.916C225.408 161.067 225.128 161.218 224.849 161.369C224.567 161.522 224.451 161.888 224.602 162.174C224.751 162.457 225.123 162.575 225.407 162.421C225.686 162.27 225.965 162.119 226.244 161.968C226.527 161.815 226.643 161.449 226.491 161.163Z" fill="#D55B43"/>
<path d="M214.127 156.803C214.779 156.286 215.505 155.877 216.129 155.325C216.763 154.765 218.202 153.412 218.813 152.829C219.364 152.302 218.591 151.397 218.035 151.928C217.425 152.512 215.987 153.867 215.352 154.425C214.725 154.974 214.001 155.386 213.349 155.902C212.749 156.377 213.526 157.278 214.127 156.803ZM230.383 150.708C230.545 150.845 230.625 151.069 230.567 151.289C230.488 151.594 230.176 151.777 229.871 151.698C229.798 151.679 228.083 151.23 226.715 149.99C226.48 149.778 226.461 149.417 226.673 149.182C226.884 148.948 227.248 148.919 227.48 149.14C228.646 150.186 230.143 150.587 230.158 150.592C230.244 150.614 230.319 150.654 230.383 150.708Z" fill="#763128"/>
<path d="M228.098 155.35C228.057 155.488 228.047 155.686 228.258 155.667C228.337 155.66 228.407 155.614 228.47 155.566C228.764 155.341 229.003 155.035 229.34 154.884C229.645 154.748 229.994 154.756 230.326 154.796C230.456 154.811 230.588 154.831 230.717 154.808C231.654 154.645 230.362 153.601 229.892 153.593C229.224 153.582 228.729 154.239 228.397 154.749C228.318 154.87 228.164 155.123 228.098 155.35Z" fill="#1A1A1A"/>
<path d="M308.638 197.437C308.638 197.437 314.478 194.889 319.049 197.174C323.619 199.459 326.476 207.839 325.523 211.647C324.571 215.456 311.241 225.93 304.766 229.167C298.291 232.405 254.109 216.027 254.109 216.027L262.298 194.698C262.298 194.698 295.564 204.479 296.927 204.73C298.291 204.982 308.638 197.437 308.638 197.437Z" fill="#B35A3C"/>
<path d="M310.606 176.733C309.045 177.493 307.135 176.853 305.898 175.763C305.505 175.416 305.161 175.029 304.846 174.619C304.907 174.631 304.966 174.648 305.027 174.658C306.329 174.861 307.599 174.441 308.522 173.498C310.661 171.315 310.124 168.044 309.133 165.457C308.156 162.906 306.397 160.316 303.504 159.829C302.083 159.59 300.627 159.923 299.594 160.965C299.218 161.344 298.917 161.794 298.714 162.281C298.368 161.41 298.023 160.539 297.678 159.668C297.164 158.375 296.656 157.063 295.923 155.875C294.591 153.714 292.23 151.931 289.559 152.442C289.411 152.471 289.267 152.513 289.125 152.558C286.693 150.403 283.059 149.597 279.993 150.805C275.528 152.564 273.2 157.579 272.099 161.943C271.451 164.512 271.195 167.19 271.367 169.835C271.539 172.483 272.269 175.265 271.43 177.869C271.031 179.109 270.302 180.207 269.758 181.384C269.203 182.587 268.889 183.85 268.756 185.166C268.494 187.755 268.787 190.496 269.411 193.016C270.535 197.563 273.38 201.869 277.936 203.517C278.036 203.553 278.14 203.58 278.241 203.613C278.582 204.232 278.989 204.82 279.445 205.364C280.982 207.203 283.079 208.475 285.222 209.493C286.335 210.021 287.474 210.495 288.612 210.966C289.784 211.452 290.992 211.897 292.276 211.933C294.527 211.995 296.822 210.918 298.755 209.856C302.348 207.884 305.515 204.875 307.052 201.019C307.925 198.829 308.082 196.489 307.918 194.156C307.731 191.497 307.348 188.838 306.91 186.21C306.335 182.759 305.581 179.34 304.663 175.966C304.946 176.266 305.249 176.549 305.582 176.803C307.151 177.999 309.289 178.496 311.116 177.607C311.702 177.323 311.19 176.45 310.606 176.733Z" fill="#621406"/>
<path d="M252.48 379.089C252.48 379.089 252.616 381.153 257.242 381.425C261.869 381.698 275.339 381.902 281.734 381.357C288.13 380.813 295.001 380.133 295.001 380.133C295.001 380.133 291.735 373.806 279.966 372.649C268.196 371.493 258.331 372.921 257.378 373.398C256.426 373.874 252.48 379.089 252.48 379.089Z" fill="#1A1A1A"/>
<path d="M256.615 340.512C256.615 340.512 254.29 358.079 255.323 364.021C256.357 369.963 273.666 425.765 274.441 427.831C275.216 429.898 272.116 448.757 271.599 451.599C271.082 454.441 266.69 455.991 266.174 457.799C265.657 459.607 266.174 461.933 268.499 462.191C270.824 462.449 283.483 462.707 285.808 460.641C288.133 458.574 293.816 427.831 292.783 424.215C291.75 420.598 288.391 420.081 287.099 416.206C285.808 412.331 281.158 375.388 279.608 369.188C278.058 362.987 275.474 354.72 275.474 354.72C275.474 354.72 293.041 325.269 293.558 321.653C294.075 318.036 267.466 306.152 266.432 307.186C265.399 308.219 256.615 340.512 256.615 340.512Z" fill="#E38E6C"/>
<path d="M288.059 418.134C287.379 421.989 284.946 435.892 284.423 440.473C283.813 445.812 283.05 446.728 281.982 445.355C280.978 444.064 277.412 440.618 272.678 445.028C272.195 448.14 271.766 450.688 271.6 451.597C271.084 454.439 266.692 455.989 266.175 457.797C265.659 459.606 266.175 461.931 268.5 462.189C270.826 462.448 283.484 462.706 285.809 460.639C288.134 458.573 293.818 427.83 292.784 424.213C291.952 421.301 289.614 420.398 288.059 418.134Z" fill="#EDB24C"/>
<path d="M292.781 424.216C292.326 422.623 291.42 421.631 290.437 420.689C290.123 423.063 289.607 427.312 289.607 429.645C289.607 433.002 289.607 441.544 288.386 447.341C287.166 453.138 285.64 458.936 283.962 459.088C282.284 459.241 277.402 458.02 271.3 458.173C268.714 458.237 267.062 458.439 266.014 458.65C265.857 460.267 266.524 462.106 268.499 462.306C270.961 462.557 282.608 463.291 285.806 460.643C288.202 458.659 293.815 427.833 292.781 424.216Z" fill="#EFE4DA"/>
<path d="M320.505 447.469C320.255 446.098 319.868 444.746 319.455 443.401C318.756 440.685 317.964 437.42 317.462 434.192C317.73 430.619 317.761 423.795 317.918 418.36C319.254 371.91 315.454 352.859 315.454 352.859C315.454 352.859 294.685 348.319 291.973 352.853C291.973 352.853 300.398 400.795 302.203 415.439C303.102 422.73 305.372 434.599 305.016 439.27C304.793 442.159 303.185 445.267 301.47 448.206C301.239 448.598 301.006 448.987 300.774 449.374C298.462 452.442 295.553 455.426 294.425 456.271C292.938 457.387 292.814 461.228 293.558 461.971C294.301 462.715 316.976 462.839 319.826 461.847C322.621 460.875 321.484 451.57 320.505 447.469Z" fill="#E38E6C"/>
<path d="M319.826 461.846C322.621 460.874 321.484 451.568 320.505 447.467C320.431 447.062 320.342 446.659 320.248 446.257C317.998 448.804 314.163 451.989 311.727 452.373C308.829 452.831 308.218 450.543 303.947 450.238C302.303 450.12 300.888 450.343 299.765 450.66C297.675 453.239 295.394 455.543 294.425 456.27C292.938 457.385 292.815 461.226 293.558 461.969C294.301 462.713 316.977 462.837 319.826 461.846Z" fill="#EDB24C"/>
<path d="M310.203 460.458C307.61 460.305 302.27 458.017 298.914 458.17C296.739 458.269 294.502 458.687 293.195 458.97C293.012 460.262 293.158 461.567 293.56 461.969C294.303 462.712 316.978 462.836 319.828 461.845C321.197 461.369 321.621 458.892 321.584 456.009C319.87 457.486 317.759 459.473 316.916 459.848C315.543 460.458 312.797 460.611 310.203 460.458Z" fill="#EFE4DA"/>
<path d="M293.169 199.635C293.169 199.635 305.871 206.519 310.177 211.169C314.483 215.819 320.855 244.064 320.511 251.643C320.166 259.221 315.516 262.321 311.21 263.354C311.21 263.354 318.616 300.555 319.649 320.878C320.683 341.201 321.372 378.058 321.372 378.058C321.372 378.058 308.282 382.88 290.715 380.124C273.148 377.369 267.328 376.382 260.712 376.733C253.024 377.141 252.48 379.091 252.48 379.091C252.48 379.091 252.48 350.845 253.17 315.022C253.859 279.199 255.999 248.332 255.999 248.332C255.999 248.332 251.227 243.56 253.5 235.606C255.772 227.652 254.409 228.561 256.227 222.879C258.044 217.198 259.181 208.562 260.317 206.971C261.454 205.38 274.275 199.451 274.275 199.451L293.169 199.635Z" fill="#E84551"/>
<path d="M309.7 210.683C309.545 210.53 309.381 210.374 309.21 210.217C304.607 213.316 300.472 217.055 297.343 221.713C295.933 223.811 294.767 226.065 293.891 228.436C293.741 228.844 294.393 229.02 294.542 228.615C297.338 221.043 303.091 215.127 309.7 210.683ZM260.603 206.674C260.484 211.568 260.993 216.467 262.126 221.232C262.226 221.654 262.877 221.475 262.776 221.052C261.617 216.176 261.126 211.164 261.292 206.157C261.009 206.348 260.778 206.521 260.603 206.674ZM296.456 201.498C296.241 201.373 296.033 201.253 295.835 201.138C292.652 203.727 289.47 206.316 286.288 208.905C284.107 210.679 281.85 212.886 279.034 213.56C277.596 213.904 276.146 213.741 274.997 212.76C273.934 211.852 273.34 210.554 272.976 209.23C272.176 206.316 272.112 203.189 272.653 200.211C272.427 200.318 272.179 200.436 271.918 200.561C271.517 203.107 271.552 205.714 272.056 208.249C272.58 210.89 273.936 213.965 276.951 214.366C279.913 214.76 282.584 212.767 284.751 211.019C287.451 208.841 290.134 206.641 292.825 204.451C294.036 203.467 295.246 202.482 296.456 201.498Z" fill="#BC2328"/>
<path d="M262.906 281.266L254.465 276.027C254.233 281.057 254.002 286.59 253.793 292.476L262.906 281.266Z" fill="#1A1A1A"/>
<path d="M312.157 332.421C311.896 325.635 311.439 318.857 310.786 312.097C310.137 305.375 309.296 298.67 308.263 291.996C307.219 285.252 305.98 278.539 304.544 271.867C304.368 271.05 304.189 270.233 304.008 269.416C303.913 268.993 303.263 269.172 303.357 269.596C304.831 276.225 306.116 282.895 307.204 289.598C308.292 296.305 309.185 303.042 309.883 309.801C310.579 316.556 311.081 323.331 311.386 330.115C311.69 336.865 311.8 343.624 311.715 350.381C311.629 357.172 311.347 363.959 310.867 370.733C310.808 371.567 310.746 372.401 310.681 373.235C310.647 373.668 311.322 373.666 311.356 373.235C311.882 366.464 312.215 359.679 312.349 352.89C312.484 346.067 312.419 339.24 312.157 332.421Z" fill="#BC2328"/>
<path d="M299.723 174.401C298.748 173.699 297.449 174.178 296.508 174.705C296.007 174.985 295.536 175.322 295.093 175.693C294.771 175.966 294.448 176.91 293.925 176.531C293.669 176.344 293.601 175.997 293.557 175.681C293.457 174.936 293.388 174.187 293.42 173.437C293.441 172.905 293.509 172.375 293.426 171.851C293.297 171.057 292.819 170.359 292.652 169.57C292.532 169.009 292.574 168.41 292.385 167.867C292.047 166.887 291.054 166.295 290.078 165.951C289.102 165.602 288.055 165.408 287.19 164.841C285.493 163.723 284.88 161.781 282.693 161.322C280.354 160.835 277.657 162.441 276.328 164.309C271.518 171.124 266.1 180.934 270.106 188.23C273.001 192.225 277.933 191.7 278.815 191.552L278.842 191.547C278.865 191.546 278.888 191.542 278.903 191.537C278.863 191.732 278.82 191.925 278.778 192.119C278.573 193.003 278.374 193.771 278.224 194.245C277.788 196.179 276.495 197.242 274.278 199.451C274.278 199.451 274.152 200.18 274.075 201.278C273.882 203.96 273.986 208.843 276.94 210.651C279.563 212.255 285.495 206.043 287.174 204.789C287.815 204.311 288.389 203.872 288.904 203.469C291.904 201.112 292.926 199.942 293.172 199.635C293.16 199.6 293.148 199.567 293.14 199.528C292.501 196.147 292.306 193.185 292.756 189.406C293.154 186.836 293.81 184.135 294.21 182.248C294.427 182.344 298.835 184.225 300.519 179.635C300.966 178.408 301.575 175.699 299.723 174.401Z" fill="#E38E6C"/>
<path d="M274.57 176.504C274.687 176.16 275.083 175.961 275.428 176.083C275.768 176.203 276.108 176.322 276.448 176.442C276.792 176.563 276.988 176.952 276.869 177.3C276.752 177.644 276.356 177.843 276.011 177.721C275.671 177.602 275.331 177.482 274.991 177.362C274.647 177.241 274.451 176.852 274.57 176.504Z" fill="#CE5C48"/>
<path d="M285.761 174.177C286.25 174.459 286.948 174.08 286.903 173.525C286.851 172.897 285.97 172.243 285.414 172.036C284.577 171.725 283.627 171.713 283.203 171.939C282.461 172.335 282.371 173.222 282.849 173.213C284.836 173.177 285.407 173.973 285.761 174.177ZM271.797 172.557C271.437 171.788 272.547 171.169 273.08 170.972C273.663 170.756 274.255 170.692 274.864 170.894C275.01 170.943 275.158 171.024 275.223 171.163C275.368 171.479 275.332 171.8 275.116 172.077C274.676 172.64 274.153 172.181 273.598 172.213C272.52 172.275 271.97 172.927 271.797 172.557ZM287.813 188.452C285.668 191.641 282.581 194.236 278.133 194.637L278.904 191.538C278.889 191.542 278.866 191.547 278.842 191.548L278.957 191.516C278.957 191.516 278.988 191.511 278.996 191.511C282.288 191.103 285.675 189.582 287.813 188.452Z" fill="#1A1A1A"/>
<path d="M272.925 180.485C274.18 180.734 276.503 181.158 278.56 181.328C279.008 181.366 279.293 181.826 279.115 182.238C278.664 183.285 277.63 184.964 275.562 185.308C273.325 185.681 272.455 182.813 272.149 181.255C272.059 180.795 272.465 180.394 272.925 180.485Z" fill="white"/>
<path d="M233.947 244.845C233.947 244.845 224.235 239.587 224.579 229.254C224.924 218.92 231.985 201.008 240.252 195.325C248.519 189.641 257.302 191.191 262.297 192.741C267.292 194.291 276.461 197.435 276.461 197.435C276.461 197.435 276.001 198.875 272.832 200.315C269.664 201.755 261.599 205.845 260.504 207.17C259.41 208.495 257.912 216.618 257.509 218.865C257.105 221.112 256.011 225.317 256.011 225.317C256.011 225.317 255.435 234.476 255.262 236.723C255.089 238.969 233.947 244.845 233.947 244.845Z" fill="white"/>
<path d="M233.413 244.713C233.413 244.713 229.491 240.119 232.959 233.616C235.715 228.449 239.733 226.374 246.176 226.994C254.202 227.766 267.86 234.676 270.462 242.359C273.064 250.041 266.745 258.715 260.797 266.521C260.797 266.521 259.682 269.371 261.169 272.593C262.656 275.814 265.506 279.408 262.904 281.266C260.302 283.125 256.337 281.886 254.85 280.894C253.363 279.903 247.539 273.212 246.796 269.743C246.052 266.273 249.926 263.298 250.761 261.565C252.372 258.219 251.009 253.759 255.098 249.174C255.097 249.174 240.848 250.537 233.413 244.713Z" fill="#E38E6C"/>
<path d="M260.795 266.521C261.642 265.409 262.496 264.279 263.332 263.137C261.24 262.585 259.247 261.645 257.459 260.435C255.39 259.035 253.558 257.26 252.117 255.214C251.632 257.557 251.643 259.729 250.759 261.565C249.924 263.298 246.05 266.273 246.793 269.742C247.537 273.212 253.361 279.903 254.847 280.894C256.334 281.886 260.3 283.125 262.902 281.266C265.504 279.407 262.654 275.814 261.167 272.592C259.68 269.371 260.795 266.521 260.795 266.521Z" fill="white"/>
<path d="M262.783 278.188C262.1 277.927 261.365 277.868 260.648 278.01C259.983 278.141 259.444 278.561 258.801 278.735C258.113 278.921 257.519 278.396 256.924 278.137C256.399 277.908 255.844 277.815 255.313 277.996C253.591 277.137 252.193 275.781 251.303 274.066C251.003 273.488 250.129 273.999 250.429 274.577C250.967 275.613 251.688 276.56 252.555 277.343C252.972 277.72 253.422 278.065 253.895 278.368C254.284 278.618 255.012 279.181 255.485 279.015C255.787 278.908 255.965 278.873 256.28 278.97C256.594 279.066 256.87 279.245 257.16 279.394C257.702 279.673 258.263 279.869 258.879 279.755C259.46 279.647 259.943 279.292 260.493 279.1C261.164 278.865 261.857 278.913 262.514 279.164C263.123 279.396 263.386 278.418 262.783 278.188Z" fill="#D5CABE"/>
<path d="M257.936 249.809C257.936 249.809 262.194 249.248 265.444 248.072C268.694 246.895 270.543 245.774 271.832 245.886C273.121 245.998 273.121 247.511 272.56 248.688C272.56 248.688 275.978 248.296 277.939 247.792C279.901 247.287 280.461 248.968 279.34 250.089C279.34 250.089 281.301 250.369 281.021 251.77C280.741 253.171 280.069 253.171 280.069 253.171L277.827 254.011C277.827 254.011 280.797 253.619 280.461 255.692C280.125 257.765 275.026 258.606 275.026 258.606C275.026 258.606 275.754 259.783 273.793 261.071C271.832 262.36 267.966 262.921 263.315 263.089C258.664 263.257 255.414 262.696 255.414 262.696L257.936 249.809Z" fill="#E38E6C"/>
<path d="M280.774 254.605C280.336 254.235 279.703 254.585 279.821 255.16C279.976 255.92 278.881 256.632 278.309 256.948C277.443 257.426 276.471 257.666 275.508 257.865C274.341 258.107 273.157 258.252 271.969 258.348C270.77 258.446 269.554 258.448 268.374 258.694C268.018 258.768 267.994 259.384 268.374 259.438C269.746 259.635 271.157 259.538 272.536 259.438C273.14 259.394 273.747 259.334 274.351 259.257C274.198 260.655 272.203 261.198 271.07 261.524C269.479 261.984 267.821 262.212 266.176 262.385C262.714 262.75 259.228 262.728 255.762 262.424C255.382 262.391 255.288 263.044 255.671 263.097C258.6 263.503 261.569 263.626 264.525 263.489C267.357 263.357 270.346 263.142 272.992 262.046C274.257 261.522 275.552 260.569 275.542 259.075C275.928 259.005 276.311 258.927 276.691 258.832C277.767 258.565 278.834 258.161 279.714 257.474C280.396 256.943 281.774 255.449 280.774 254.605ZM281.455 252.015C281.349 251.484 280.691 251.537 280.427 251.881C280.34 251.993 280.31 252.097 280.194 252.183C280.077 252.27 279.931 252.32 279.796 252.37C279.373 252.526 278.945 252.669 278.515 252.804C277.63 253.082 276.733 253.323 275.827 253.522C274.035 253.915 272.2 254.117 270.376 254.281C269.842 254.329 269.829 255.093 270.376 255.121C272.492 255.233 274.607 254.967 276.678 254.516C277.689 254.296 278.685 254.02 279.666 253.69C280.424 253.434 281.662 253.053 281.455 252.015ZM267.059 246.991C265.931 247.336 264.837 247.772 263.697 248.086C263.129 248.242 262.556 248.382 261.981 248.514C261.449 248.637 260.77 248.679 260.308 248.986C260.033 249.169 260.061 249.615 260.403 249.708C260.975 249.863 261.694 249.647 262.263 249.536C262.842 249.423 263.416 249.286 263.986 249.136C265.161 248.826 266.371 248.49 267.472 247.971C268.024 247.71 267.634 246.814 267.059 246.991Z" fill="#DC815C"/>
<path d="M225.643 252.21C225.785 259.869 230.389 262.356 238.938 263.967C247.488 265.578 252.248 264.663 254.354 264.663C256.461 264.663 258.815 259.582 259.682 256.485C260.55 253.387 260.302 248.679 260.302 248.679C260.302 248.679 251.655 249.738 244.096 248.623C236.538 247.508 233.768 244.807 231.906 243.294C230.829 242.42 229.929 241.673 229.29 241.037C227.296 243.456 225.566 248.058 225.643 252.21Z" fill="#E84551"/>
<path d="M249.75 264.906C250.032 264.898 250.302 264.889 250.562 264.878C253.296 260.369 255.022 255.269 255.605 250.023C255.641 249.696 255.669 249.367 255.696 249.039C255.474 249.05 255.247 249.06 255.014 249.069C254.626 253.641 253.358 258.13 251.273 262.226C250.807 263.142 250.295 264.034 249.75 264.906Z" fill="#BC2328"/>
<path d="M250.099 216.021C250.709 215.475 256.739 214.983 262.277 213.383C267.814 211.783 268.429 211.66 269.66 214.491C270.891 217.321 272.49 222.981 271.506 224.95C270.522 226.919 260.677 229.626 255.14 230.611C249.602 231.595 244.188 229.38 244.188 229.38L250.099 216.021Z" fill="white"/>
<path d="M260.656 213.014C259.713 213.033 258.761 213.452 257.858 213.701C256.926 213.959 255.99 214.202 255.043 214.398C254.495 214.512 253.943 214.611 253.389 214.692C251.667 211.536 250.862 208.037 249.484 204.738C248.786 203.066 247.959 201.369 246.672 200.066C245.583 198.963 244.159 198.185 242.655 197.822C240.908 197.399 239.081 197.504 237.424 198.206C236.762 198.487 237.234 199.614 237.916 199.374C240.59 198.432 243.709 198.946 245.758 200.981C246.95 202.165 247.727 203.753 248.375 205.284C249.034 206.841 249.55 208.454 250.122 210.044C250.711 211.682 251.343 213.33 252.239 214.828C251.777 214.868 251.315 214.893 250.852 214.909C250.375 214.925 249.848 214.886 249.387 215.017C249.072 215.106 248.96 215.608 249.289 215.763C250.116 216.154 251.232 216.069 252.125 216.02C253.136 215.964 254.144 215.832 255.139 215.646C256.115 215.462 257.082 215.233 258.041 214.972C258.98 214.716 260.096 214.533 260.926 214.008C261.359 213.735 261.203 213.003 260.656 213.014Z" fill="#E3E8EA"/>
<path d="M240.194 225.289C238.677 224.445 237.542 223.193 236.57 221.771C235.57 220.307 234.742 218.729 234.12 217.068C232.827 213.614 232.371 209.921 232.627 206.249C232.783 204.027 233.219 201.819 233.723 199.651C233.873 199.005 232.954 198.762 232.737 199.379C231.374 203.26 231.001 207.562 231.522 211.639C231.999 215.361 233.253 219.024 235.385 222.131C236.514 223.777 237.896 225.458 239.816 226.185C240.34 226.383 240.672 225.555 240.194 225.289Z" fill="#B35A3C"/>
<path d="M267.98 213.055C267.98 213.055 269.196 212.345 270.26 210.724C271.324 209.102 272.692 209.102 273.3 210.369C273.909 211.636 273.452 212.143 273.706 212.193C273.959 212.244 276.696 211.281 277.963 211.535C279.23 211.788 279.23 213.004 279.23 213.562C279.23 214.119 281.409 214.322 281.257 215.994C281.105 217.666 279.99 218.275 279.838 219.136C279.686 219.998 279.23 220.504 278.419 221.062C277.608 221.619 278.013 222.177 277.152 222.734C276.291 223.291 272.844 224.305 269.601 223.849C266.358 223.393 265.902 213.156 267.98 213.055Z" fill="#E38E6C"/>
<path d="M256.919 191.547C256.919 191.547 256.334 183.605 255.677 183.453C255.021 183.302 244.567 182.393 244.567 182.393C244.567 182.393 244.769 187.139 244.82 187.594C244.87 188.048 244.921 189.967 244.416 191.331C243.911 192.694 243.039 193.684 243.039 193.684C244.182 193.661 245.83 194.06 246.907 196.215C248.697 199.795 251.75 201.163 255.225 199.689C258.467 198.314 258.774 194.83 256.919 191.547Z" fill="#E38E6C"/>
<path d="M245.404 186.727C245.548 188.417 245.857 190.167 246.679 191.672C247.064 192.377 247.568 193.016 248.199 193.518C248.944 194.112 249.854 194.499 250.773 194.727C252.792 195.229 254.943 194.964 256.912 194.373C257.244 194.273 257.573 194.16 257.9 194.041C257.72 193.222 257.39 192.378 256.92 191.547C256.92 191.547 256.335 183.604 255.678 183.453C255.128 183.326 247.69 182.666 245.303 182.457C245.292 183.881 245.282 185.305 245.404 186.727Z" fill="#1A1A1A"/>
<path d="M240.682 182.967C240.682 182.967 235.988 177.021 236.008 171.986C236.028 166.951 239.169 167.932 239.821 167.36C240.474 166.788 239.683 164.214 245.174 159.594C250.666 154.974 255.177 157.501 255.006 158.741C254.835 159.98 258.662 159.451 261.134 161.472C263.606 163.492 263.554 168.905 258.643 171.94C253.732 174.975 248.1 184.463 245.288 184.362C242.476 184.259 240.682 182.967 240.682 182.967Z" fill="#804037"/>
<path d="M262.383 188.713C263.568 187.147 265.541 183.907 263.373 177.142C261.205 170.377 259.827 168.466 259.827 168.466C259.827 168.466 258.15 169.095 255.038 167.465C251.926 165.836 250.813 169.932 248.208 171.423C245.603 172.914 245.451 174.025 245.039 175.871C244.627 177.718 245.455 181.598 244.444 182.058C244.111 182.21 242.171 178.393 239.047 180.742C236.427 182.712 238.964 186.946 241.327 188.2C243.555 189.383 244.851 187.983 244.851 187.983C244.851 187.983 245.983 190.218 247.495 191.112C254.553 195.287 261.198 190.28 262.383 188.713Z" fill="#E38E6C"/>
<path d="M252.954 179.936C252.812 179.68 252.592 179.5 252.322 179.389C252.08 179.291 251.804 179.239 251.544 179.263C251.259 179.289 251.006 179.458 250.835 179.681C250.581 180.013 250.554 180.45 250.676 180.838C250.676 180.841 250.676 180.845 250.676 180.848C250.696 181.068 250.812 181.241 250.938 181.417C251.253 181.858 251.813 182.116 252.34 181.915C252.813 181.735 253.009 181.159 253.073 180.7C253.108 180.447 253.08 180.161 252.954 179.936ZM262.837 176.586C262.768 176.465 262.699 176.38 262.601 176.282C262.45 176.131 262.254 176.045 262.061 176.003C261.992 175.988 261.919 175.988 261.848 175.992C261.821 175.986 261.794 175.978 261.766 175.974C261.538 175.943 261.287 176.007 261.123 176.188C260.965 176.365 260.876 176.589 260.861 176.845C260.837 177.257 260.942 177.687 261.154 178.033C261.372 178.388 261.803 178.618 262.173 178.531C262.554 178.441 262.866 178.093 262.965 177.67C263.018 177.446 263.04 177.206 262.985 176.974C262.95 176.83 262.908 176.711 262.837 176.586Z" fill="#1A1A1A"/>
<path d="M258.888 180.925C258.802 180.83 258.684 180.753 258.552 180.745C258.507 180.746 258.462 180.747 258.416 180.748C258.326 180.763 258.246 180.8 258.175 180.858C257.927 181.022 257.678 181.186 257.429 181.351C257.376 181.392 257.337 181.442 257.31 181.502C257.274 181.558 257.253 181.619 257.249 181.686C257.235 181.811 257.276 181.968 257.362 182.063C257.448 182.158 257.565 182.236 257.697 182.244C257.743 182.243 257.788 182.241 257.833 182.24C257.923 182.225 258.003 182.189 258.074 182.131C258.323 181.967 258.571 181.802 258.82 181.638C258.873 181.597 258.913 181.547 258.939 181.486C258.975 181.431 258.996 181.37 259.001 181.302C259.014 181.177 258.973 181.02 258.888 180.925Z" fill="#CE5C48"/>
<path d="M251.57 176.456C251.452 176.226 251.147 176.071 250.899 176.207C250.074 176.658 249.351 177.235 248.719 177.928C248.54 178.125 248.623 178.496 248.834 178.635C249.085 178.799 249.349 178.73 249.54 178.52C249.553 178.506 249.565 178.492 249.578 178.478C249.582 178.475 249.58 178.476 249.584 178.472C249.621 178.435 249.656 178.397 249.693 178.36C249.766 178.287 249.841 178.214 249.917 178.144C250.065 178.007 250.218 177.877 250.376 177.752C250.534 177.628 250.697 177.51 250.865 177.399C250.908 177.37 250.951 177.34 250.996 177.314C250.879 177.381 251.029 177.294 251.05 177.281C251.139 177.228 251.23 177.176 251.321 177.127C251.552 177 251.7 176.711 251.57 176.456ZM262.205 172.793C261.493 172.749 260.778 172.879 260.133 173.184C259.894 173.297 259.758 173.61 259.884 173.855C260.008 174.096 260.298 174.225 260.555 174.104C260.687 174.041 260.823 173.986 260.962 173.939C260.975 173.935 260.988 173.93 261.001 173.926C261.031 173.918 261.061 173.909 261.092 173.902C261.163 173.884 261.234 173.868 261.306 173.854C261.45 173.826 261.596 173.807 261.742 173.797C261.751 173.796 261.823 173.794 261.848 173.792C261.852 173.792 261.856 173.792 261.86 173.792C261.939 173.792 262.018 173.795 262.096 173.8C262.36 173.816 262.636 173.632 262.654 173.351C262.671 173.088 262.488 172.811 262.205 172.793Z" fill="#804037"/>
<path d="M260.765 182.437C260.765 182.437 256.761 183.97 256.482 184.171C256.203 184.372 257.548 187.214 259.319 186.304C261.09 185.393 260.765 182.437 260.765 182.437Z" fill="white"/>
<path d="M289.099 168.76C288.763 168.55 288.432 168.332 288.107 168.105C287.944 167.991 287.783 167.876 287.623 167.758C287.539 167.696 287.455 167.633 287.371 167.569C287.34 167.546 287.309 167.522 287.279 167.499C287.271 167.492 287.218 167.451 287.203 167.44C286.57 166.942 285.964 166.411 285.386 165.851C285.132 165.605 284.681 165.58 284.432 165.851C284.188 166.117 284.161 166.543 284.432 166.805C285.645 167.981 286.986 169.029 288.419 169.925C288.718 170.113 289.175 169.999 289.342 169.683C289.517 169.352 289.419 168.96 289.099 168.76ZM277.667 165.719C277.55 165.357 277.206 165.166 276.837 165.248C275.996 165.435 275.168 165.676 274.359 165.972C274.191 166.033 274.049 166.123 273.956 166.282C273.871 166.426 273.835 166.639 273.888 166.802C273.993 167.126 274.363 167.402 274.718 167.273C275.527 166.977 276.354 166.735 277.195 166.549C277.54 166.472 277.775 166.054 277.667 165.719Z" fill="#621406"/>
<path d="M265.387 233.331C265.387 233.331 260.573 228.32 259.32 226.473C258.067 224.627 257.144 223.176 256.154 223.901C255.165 224.627 255.891 227.726 255.891 227.726C255.891 227.726 252.857 226.605 250.615 224.759C248.373 222.912 246.79 222.319 245.867 222.781C244.944 223.242 244.878 223.968 244.878 223.968C244.878 223.968 241.91 222.912 241.317 223.902C240.723 224.891 242.57 227.133 242.57 227.133C242.57 227.133 241.053 227.99 241.647 229.441C242.24 230.892 245.208 233.595 245.208 233.595C245.208 233.595 243.955 234.123 244.153 235.046C244.351 235.969 246.988 238.739 251.67 241.047C256.352 243.355 262.023 245.07 262.023 245.07L265.387 233.331Z" fill="#E38E6C"/>
<path d="M264.144 230.972C262.936 230.146 261.905 229.039 261.009 227.89C260.104 226.729 259.374 225.457 258.527 224.257C258.123 223.684 257.601 223.175 256.88 223.064C256.201 222.959 255.574 223.283 255.206 223.853C254.8 224.481 254.806 225.234 254.966 225.94C255.056 226.338 255.169 226.75 255.299 227.157C254.339 226.598 253.373 226.048 252.46 225.413C251.305 224.608 250.355 223.496 249.136 222.789C248.093 222.184 246.51 221.695 245.381 222.352C244.942 222.608 244.658 223.066 244.579 223.544C244.217 223.36 243.828 223.229 243.419 223.16C242.664 223.034 241.698 223.005 241.149 223.635C240.182 224.744 241.034 226.105 241.97 227.06C241.689 227.216 241.443 227.446 241.277 227.72C240.808 228.491 241.037 229.433 241.411 230.189C242.056 231.489 243.064 232.627 244.203 233.548C244.056 233.667 243.926 233.81 243.83 233.972C243.45 234.607 243.631 235.389 244 235.983C244.834 237.33 246.3 238.292 247.621 239.105C250.562 240.916 253.661 242.503 256.834 243.866C257.748 244.258 258.667 244.637 259.594 244.996C260.531 245.359 261.477 245.677 262.488 245.728C263.192 245.763 263.177 244.699 262.488 244.642C261.026 244.522 259.608 243.871 258.262 243.327C256.863 242.762 255.484 242.147 254.124 241.495C252.794 240.856 251.487 240.173 250.201 239.45C248.958 238.75 247.686 238.045 246.553 237.174C245.968 236.724 245.364 236.205 244.943 235.593C244.759 235.326 244.543 234.953 244.637 234.616C244.713 234.345 244.954 234.159 245.222 234.268C245.775 234.493 246.052 233.651 245.609 233.352C244.498 232.604 243.524 231.649 242.776 230.537C242.422 230.011 242.002 229.388 242.001 228.73C242.001 228.229 242.418 227.663 242.962 227.886C243.401 228.066 243.805 227.369 243.433 227.076C242.815 226.589 241.16 225.236 241.826 224.298C242.142 223.853 242.992 223.948 243.451 224.039C243.92 224.133 244.37 224.316 244.771 224.576C244.877 224.739 245.023 224.884 245.212 224.999C245.77 225.335 246.278 224.462 245.721 224.127C245.456 223.968 245.531 223.552 245.707 223.345C246.016 222.98 246.639 222.986 247.067 223.052C248.249 223.234 249.163 223.914 250.032 224.688C251.752 226.219 253.692 227.406 255.766 228.393C255.767 228.397 255.769 228.4 255.77 228.403C256.02 228.962 256.819 228.545 256.709 228.007C256.557 227.258 256.227 226.547 256.038 225.806C255.91 225.304 255.822 224.628 256.253 224.233C257.176 223.386 258.362 225.752 258.742 226.316C260.126 228.364 261.629 230.317 263.75 231.645C264.18 231.915 264.553 231.253 264.144 230.972Z" fill="#DC815C"/>
<path d="M264.073 249.78C263.753 249.64 259.416 247.335 258.834 246.404C258.252 245.473 260.696 237.906 262.326 233.947C263.956 229.989 265.237 229.757 267.099 230.106C268.962 230.455 297.367 238.255 297.367 238.255C297.367 238.255 309.475 240.932 311.92 241.747C314.364 242.562 303.305 263.401 298.765 263.284C294.224 263.168 276.296 255.135 264.073 249.78Z" fill="#E84551"/>
<path d="M272.625 232.112C269.763 236.471 268.012 241.519 267.528 246.708C267.388 248.207 267.36 249.714 267.436 251.218C267.458 251.65 268.132 251.653 268.11 251.218C267.851 246.085 268.868 240.906 271.067 236.258C271.691 234.941 272.408 233.671 273.207 232.453C273.446 232.089 272.862 231.75 272.625 232.112Z" fill="#BC2328"/>
<path d="M317.836 259.574C315.632 261.881 312.8 263.152 309.71 263.457C306.011 263.822 302.213 263.596 298.561 262.928C294.662 262.215 290.949 260.908 287.327 259.319C283.629 257.696 279.968 255.989 276.292 254.318C272.071 252.398 267.849 250.479 263.627 248.56C263.295 248.409 262.901 248.465 262.704 248.801C262.534 249.091 262.613 249.573 262.946 249.724C270.598 253.203 278.229 256.735 285.907 260.157C289.605 261.805 293.367 263.253 297.345 264.063C301.179 264.844 305.153 265.157 309.058 264.863C312.714 264.586 316.174 263.266 318.79 260.527C319.39 259.9 318.437 258.944 317.836 259.574Z" fill="#FBDDB4"/>
<path d="M301.474 238.638C300.273 238.402 299.075 238.158 297.878 237.907C297.889 237.856 297.895 237.803 297.889 237.748C297.609 235.393 297.33 233.038 297.051 230.682C297.008 230.32 296.771 230.007 296.376 230.007C296.045 230.007 295.658 230.318 295.702 230.682C295.976 232.993 296.25 235.304 296.524 237.616C289.128 236.028 281.794 234.151 274.548 231.977C272.046 231.226 269.555 230.44 267.075 229.621C266.249 229.348 265.895 230.651 266.717 230.922C275.5 233.822 284.424 236.297 293.449 238.326C295.997 238.899 298.553 239.436 301.116 239.939C301.963 240.105 302.326 238.805 301.474 238.638Z" fill="#BC2328"/>
<path d="M318.725 198.492C318.725 198.492 326.534 206.059 322.976 211.396C319.958 215.923 310.903 209.887 309.394 206.491C307.885 203.096 318.725 198.492 318.725 198.492Z" fill="#3A1714"/>
<path d="M319.583 199.323C319.583 199.323 322.223 203.096 319.96 207.246C319.357 208.35 318.384 209.254 317.44 210.063C316.203 211.125 314.866 212.068 313.502 212.959C312.16 213.835 310.782 214.657 309.381 215.435C307.921 216.247 306.497 217.048 304.793 217.185C304.482 217.21 304.162 217.214 303.865 217.119C303.51 217.005 303.215 216.759 302.876 216.605C302.214 216.306 301.454 216.382 300.728 216.367C300.001 216.352 299.194 216.191 298.778 215.595C298.616 215.363 298.53 215.084 298.362 214.857C298.007 214.374 297.457 214.273 296.927 214.109C296.429 213.955 295.779 213.634 295.441 213.226C295.001 212.692 295.042 211.868 295.414 211.284C295.763 210.736 296.37 210.33 296.518 209.697C296.697 208.924 296.118 208.193 295.967 207.414C295.778 206.447 296.272 205.464 296.931 204.73C297.589 203.997 298.414 203.429 299.095 202.716C299.095 202.716 295.437 201.964 295.06 199.7C294.682 197.437 296.569 198.191 299.587 198.191C302.605 198.191 305.854 198.134 308.641 197.437C311.66 196.682 316.941 195.55 319.583 199.323Z" fill="#E99167"/>
<path d="M298.669 202.186C299.909 201.044 301.162 200.568 302.606 199.7C303.337 199.261 304.103 199.874 303.383 200.322C302.046 201.154 300.808 202.105 299.632 203.149C298.98 203.728 298.02 202.783 298.669 202.186Z" fill="#DC815C"/>
<path d="M222.173 225.349C222.173 225.349 220.91 224.315 219.417 226.612C217.925 228.908 217.236 239.816 219.188 242.916C221.14 246.016 222.747 245.327 224.355 244.294C225.962 243.261 225.863 238.998 226.085 235.848C226.306 232.697 224.01 224.66 222.173 225.349Z" fill="#3A1714"/>
<path d="M224.369 240.31C224.369 240.31 226.04 240.462 228.261 240.092C230.482 239.722 229.814 237.2 228.234 237.019C226.136 236.78 226.26 236.772 226.26 236.772L226.085 235.848C226.085 235.848 230.823 235.66 231.41 233.635C231.857 232.089 230.229 231.397 230.229 231.397C230.229 231.397 233.445 231.153 232.87 228.939C232.274 226.642 226.332 226.842 226.332 226.842C226.332 226.842 226.484 225.582 226.607 225.089C226.731 224.595 229.367 224.949 230.107 222.728C230.847 220.508 226.66 220.703 224.44 220.826C222.219 220.949 220.656 222.4 220.903 223.51C221.15 224.621 220.43 225.722 219.567 227.449C218.703 229.176 220.591 230.42 219.648 231.356C217.704 233.286 220.286 235.107 220.039 235.971C219.793 236.835 218.571 240.31 224.369 240.31Z" fill="#E99167"/>
<path d="M230.187 222.836C229.851 222.639 229.687 223.031 228.96 223.554C228.667 223.764 228.315 223.956 227.989 224.047C227.516 224.18 227.031 224.282 226.542 224.333C225.517 224.44 224.488 224.386 223.483 224.159C222.637 223.969 222.276 225.269 223.124 225.46C224.372 225.741 225.57 225.703 226.837 225.533C227.981 225.379 229.178 224.844 229.883 223.836C230.092 223.537 230.484 223.009 230.187 222.836ZM227.044 236.469L223.497 235.946C223.145 235.916 222.807 236.278 222.823 236.621C222.84 237.012 223.12 237.263 223.497 237.295L226.861 237.412C227.214 237.442 228.338 237.329 228.323 236.986C228.305 236.595 227.422 236.501 227.044 236.469Z" fill="#DC815C"/>
<defs>
<filter id="filter0_f_2019_2684" x="-75" y="0" width="639" height="655" filterUnits="userSpaceOnUse" color-interpolation-filters="sRGB">
<feFlood flood-opacity="0" result="BackgroundImageFix"/>
<feBlend mode="normal" in="SourceGraphic" in2="BackgroundImageFix" result="shape"/>
<feGaussianBlur stdDeviation="100" result="effect1_foregroundBlur_2019_2684"/>
</filter>
</defs>
</svg>
