<svg width="112" height="29" viewBox="0 0 112 29" fill="none" xmlns="http://www.w3.org/2000/svg">
<path d="M52.8387 28.8C52.0363 28.8 51.214 28.7335 50.3716 28.6003C49.5291 28.4672 48.7268 28.2675 47.9646 28.0012C47.2225 27.7539 46.5806 27.4211 46.0391 27.0027L47.2124 22.9229C47.9145 23.5506 48.7569 24.0165 49.7397 24.3209C50.7426 24.6252 51.7054 24.7773 52.628 24.7773C53.6911 24.7773 54.5636 24.5776 55.2456 24.1782C55.9476 23.7978 56.4791 23.2082 56.8402 22.4094C57.2213 21.5915 57.4419 20.5835 57.5021 19.3852L57.6525 16.9031H56.9304C56.7499 18.1394 56.429 19.1474 55.9677 19.9273C55.5264 20.7071 54.9548 21.2872 54.2527 21.6676C53.5708 22.029 52.7584 22.2096 51.8157 22.2096C50.6524 22.2096 49.6796 21.9339 48.8973 21.3823C48.115 20.8307 47.5233 20.0033 47.1222 18.9002C46.7411 17.778 46.5505 16.3896 46.5505 14.7348V8.48682H51.4246V13.5936C51.4246 15.3435 51.6051 16.5988 51.9661 17.3596C52.3472 18.1014 52.9389 18.4722 53.7413 18.4722C54.1625 18.4722 54.5436 18.3581 54.8846 18.1299C55.2255 17.9016 55.5164 17.5783 55.7571 17.1599C55.9978 16.7414 56.1783 16.2374 56.2986 15.6478C56.439 15.0392 56.5092 14.364 56.5092 13.6222V8.48682H61.3532V19.5564C61.3532 20.7546 61.2328 21.8483 60.9921 22.8373C60.7715 23.8263 60.4305 24.6917 59.9692 25.4335C59.5279 26.1753 58.9663 26.7934 58.2843 27.288C57.6024 27.8015 56.8101 28.1819 55.9075 28.4291C55.0049 28.6764 53.982 28.8 52.8387 28.8Z" fill="#FFD02B"/>
<path d="M19.5215 1.80375C19.5192 1.85048 19.4361 2.91463 19.4363 3.4065C19.4426 3.67849 19.3798 4.73422 19.2258 5.2329C19.0355 5.86103 19.3641 7.02886 20.6785 7.63877C20.8134 7.72006 20.9596 7.77378 21.1058 7.8275C21.6906 8.04239 22.7761 8.26677 23.7892 7.56023C24.3549 7.16524 24.7208 7.09345 25.5186 7.11692C26.0689 7.12875 26.5036 6.97119 26.6605 6.71156C26.7689 6.52928 26.7603 6.30402 26.6504 6.12084C26.481 5.83649 25.9939 5.75268 25.5214 5.67424C25.3582 5.66189 25.1918 5.61658 25.0309 5.55749L24.9545 5.49768C24.7814 5.38648 24.6376 5.28603 25.098 4.61439C25.6871 3.75205 26.2583 2.8514 26.3068 2.77405C26.4986 2.51137 26.4476 2.14359 26.1948 1.93963C26.0127 1.80927 25.701 1.78993 25.4111 2.12763L24.1725 3.67144C24.0778 3.77941 23.9212 3.83295 23.8977 3.80842C23.8741 3.78388 23.8585 3.69883 23.9343 3.47286L24.6843 1.47977C24.7884 1.18487 24.6359 0.859154 24.3346 0.732552C24.0681 0.602908 23.7404 0.704606 23.6038 0.955822L22.5478 2.91577C22.488 3.0207 22.4125 3.04058 22.3979 3.0352C22.3833 3.02983 22.3418 2.96698 22.3657 2.78542L22.6169 0.942191C22.6714 0.644954 22.4785 0.336073 22.1748 0.256206C21.9588 0.208571 21.657 0.288067 21.5134 0.679486L21.5077 0.693273L20.9737 2.73399C20.9205 2.90482 20.8088 3.05415 20.6735 3.17895C20.6613 3.12684 20.6433 3.08852 20.6457 3.04179L20.649 1.88489C20.6913 1.53555 20.4286 1.23275 20.0584 1.19192C19.8052 1.19406 19.5426 1.38314 19.5215 1.80375Z" fill="#FE871A"/>
<path d="M18.8398 26.7247V12.4603C18.8398 11.1227 19.9242 10.0383 21.2618 10.0383C22.5994 10.0383 23.6838 11.1227 23.6838 12.4603V26.7247H18.8398Z" fill="#FE871A"/>
<path d="M106.422 23.7413V4.9397H111.176V23.7413H106.422Z" fill="#FE871A"/>
<path d="M5.77664 23.741V4.91138H10.6507V23.741H5.77664ZM0 8.73437V4.91138H16.4875V8.73437H0Z" fill="#C686F5"/>
<path d="M27.4688 23.7412V8.67749H31.38L31.4402 13.0996H32.0419C32.3027 12.0345 32.6737 11.1406 33.1551 10.4178C33.6365 9.69506 34.2483 9.1625 34.9904 8.82014C35.7326 8.45877 36.6051 8.27808 37.608 8.27808C39.4733 8.27808 40.8874 8.89622 41.8502 10.1325C42.833 11.3688 43.3244 13.3374 43.3244 16.0382V23.7412H38.4504V16.5517C38.4504 14.9921 38.2097 13.8604 37.7283 13.1567C37.267 12.4339 36.575 12.0725 35.6523 12.0725C34.8901 12.0725 34.2583 12.2913 33.7569 12.7287C33.2755 13.1662 32.9144 13.7463 32.6737 14.469C32.4331 15.1918 32.3127 16.0001 32.3127 16.8941V23.7412H27.4688Z" fill="#61E4E1"/>
<path d="M92.2903 24.1536C91.4078 24.1536 90.6255 23.9919 89.9436 23.6686C89.2616 23.3262 88.7301 22.8412 88.349 22.2136C87.9679 21.5669 87.7773 20.7871 87.7773 19.8741C87.7773 19.0182 87.9478 18.3145 88.2888 17.7629C88.6499 17.1923 89.1613 16.7453 89.8232 16.422C90.5052 16.0797 91.3175 15.8039 92.2603 15.5946C93.203 15.3664 94.2761 15.1667 95.4795 14.9955C96.0612 14.9004 96.5426 14.8148 96.9237 14.7388C97.3248 14.6437 97.6257 14.501 97.8263 14.3108C98.0269 14.1206 98.1272 13.8448 98.1272 13.4834C98.1272 13.0079 97.9466 12.599 97.5856 12.2567C97.2246 11.9143 96.6429 11.7431 95.8406 11.7431C95.279 11.7431 94.7675 11.8382 94.3062 12.0284C93.8649 12.2186 93.4838 12.4944 93.1629 12.8558C92.8419 13.2172 92.6012 13.6546 92.4408 14.1682L88.1685 12.9699C88.4292 12.1711 88.7903 11.4768 89.2516 10.8872C89.733 10.2976 90.3046 9.81261 90.9665 9.43221C91.6284 9.03279 92.3806 8.74749 93.223 8.57632C94.0855 8.38612 94.9981 8.29102 95.9609 8.29102C97.5655 8.29102 98.8693 8.53827 99.8722 9.03279C100.895 9.50829 101.647 10.2596 102.129 11.2866C102.63 12.2947 102.881 13.5976 102.881 15.1952V17.5061C102.881 18.1909 102.891 18.8851 102.911 19.5888C102.951 20.2735 102.991 20.9678 103.031 21.6715C103.091 22.3562 103.162 23.0504 103.242 23.7542H98.9696C98.8894 23.3167 98.8091 22.7937 98.7289 22.185C98.6487 21.5574 98.5885 20.9202 98.5484 20.2735H97.9767C97.6959 20.9963 97.2847 21.662 96.7432 22.2706C96.2217 22.8602 95.5798 23.3262 94.8176 23.6686C94.0755 23.9919 93.2331 24.1536 92.2903 24.1536ZM94.4867 20.9012C94.8477 20.9012 95.2088 20.8441 95.5698 20.73C95.9509 20.5969 96.3119 20.4257 96.6529 20.2165C96.9939 19.9882 97.3048 19.7124 97.5856 19.3891C97.8664 19.0658 98.077 18.7139 98.2174 18.3335L98.1572 16.0797L98.8192 16.2223C98.4381 16.4505 98.0168 16.6312 97.5555 16.7644C97.0942 16.8975 96.6228 17.0021 96.1414 17.0782C95.6801 17.1543 95.2188 17.2399 94.7575 17.335C94.3162 17.411 93.915 17.5157 93.554 17.6488C93.213 17.7819 92.9422 17.9626 92.7416 18.1909C92.5411 18.4191 92.4408 18.7329 92.4408 19.1323C92.4408 19.6649 92.6313 20.0928 93.0124 20.4162C93.3935 20.7395 93.8849 20.9012 94.4867 20.9012Z" fill="#FE871A"/>
<path d="M68.3359 26.5848V18.4653H73.1799V26.5848H68.3359Z" fill="#FE871A"/>
<path fill-rule="evenodd" clip-rule="evenodd" d="M68.3477 18.4714V14.9337V4.80566H76.63C77.9137 4.80566 79.0671 4.94831 80.09 5.23361C81.133 5.51891 82.0256 5.94686 82.7677 6.51745C83.5099 7.06903 84.0715 7.78227 84.4526 8.65719C84.8537 9.51308 85.0543 10.5211 85.0543 11.6813C85.0543 13.1649 84.6933 14.4107 83.9712 15.4187C83.2692 16.4268 82.2161 17.1876 80.8121 17.7011C79.4281 18.2147 77.6931 18.4714 75.6071 18.4714H68.3477ZM79.3846 9.17642C79.3789 9.13156 79.3753 9.1033 79.3746 9.09652C79.3307 8.67751 79.0581 8.50156 78.8051 8.51183C78.4377 8.57076 78.1918 8.88603 78.2531 9.23283L78.3195 10.388C78.3229 10.4207 78.3162 10.4497 78.3086 10.4823C78.3053 10.4961 78.302 10.5107 78.2991 10.5264C78.1572 10.4084 78.0375 10.2647 77.9751 10.0967L77.3306 8.08491L77.3242 8.07142C77.1593 7.68757 76.8537 7.62298 76.6406 7.68114C76.3416 7.77579 76.1658 8.09372 76.2365 8.38788L76.5878 10.2163C76.6216 10.3965 76.5836 10.4613 76.5693 10.4674C76.555 10.4734 76.4785 10.4573 76.4131 10.3554L75.2516 8.44988C75.1015 8.2057 74.7687 8.1202 74.5096 8.26274C74.2156 8.40395 74.0811 8.7367 74.2012 9.02611L75.0588 10.9798C75.1468 11.2017 75.1359 11.2874 75.1137 11.3131C75.0915 11.3387 74.9322 11.2929 74.8317 11.1898L73.5106 9.70873C73.2027 9.3857 72.8925 9.4203 72.7178 9.55941C72.4764 9.77549 72.4455 10.1453 72.6513 10.3982C72.704 10.4731 73.3235 11.3445 73.9589 12.1768C74.4553 12.825 74.3171 12.9324 74.1503 13.0519L74.0773 13.1154C73.9199 13.1823 73.7561 13.2357 73.5939 13.256C73.1263 13.3575 72.6444 13.4651 72.4907 13.7574C72.3909 13.9457 72.3946 14.1711 72.5128 14.3478C72.6837 14.5994 73.1264 14.7354 73.6753 14.6966C74.4708 14.6341 74.8401 14.6878 75.4266 15.0545C76.4768 15.7105 77.5487 15.4332 78.121 15.1899C78.264 15.1291 78.4071 15.0683 78.5374 14.9805C79.8168 14.3069 80.0813 13.1245 79.857 12.5066C79.676 12.0161 79.5557 10.9649 79.5471 10.693C79.5244 10.2733 79.4182 9.43947 79.3846 9.17642Z" fill="#FE871A"/>
</svg>
