<svg width="133" height="108" viewBox="0 0 133 108" fill="none" xmlns="http://www.w3.org/2000/svg">
<path d="M100.407 49.5512C100.315 70.7518 95.8891 88.0612 75.9688 89.4684C74.4712 89.552 73.2999 90.7903 73.2915 92.2879V104.871C73.2915 105.641 73.6095 106.385 74.17 106.921C74.7306 107.456 75.4836 107.732 76.2533 107.699C91.221 106.921 105.326 100.479 115.71 89.6774C126.093 78.8762 131.983 64.5282 132.167 49.5525H132.184V4.01312C132.184 -5.93457 124.118 -14 114.17 -14H86.6437C76.696 -14 68.6306 -5.93478 68.6306 4.01312V31.5398C68.6306 41.4875 76.6958 49.553 86.6437 49.553L100.407 49.5512Z" fill="#F0F0F0"/>
<path d="M31.7781 49.5512C31.6861 70.7518 27.2602 88.0612 7.33992 89.4684C5.84232 89.552 4.671 90.7903 4.66265 92.2879V104.871C4.66265 105.641 4.98057 106.385 5.54113 106.921C6.10168 107.456 6.85467 107.732 7.6244 107.699C22.5921 106.921 36.6975 100.479 47.081 89.6774C57.464 78.8762 63.354 64.5282 63.538 49.5525H63.5547V4.01312C63.5547 -5.93457 55.4894 -14 45.5415 -14H18.0148C8.06714 -14 0.00167465 -5.93478 0.00167465 4.01312V31.5398C0.00167465 41.4875 8.06693 49.553 18.0148 49.553L31.7781 49.5512Z" fill="#F0F0F0"/>
</svg>
